<svg
   width="159.192mm"
   height="225.427mm"
   viewBox="0 0 159.192 225.427"
   version="1.1"
   id="svg1"
   xml:space="preserve"
   inkscape:version="1.4 (e7c3feb100, 2024-10-09)"
   sodipodi:docname="frs.svg"
   xmlns:inkscape="http://www.inkscape.org/namespaces/inkscape"
   xmlns:sodipodi="http://sodipodi.sourceforge.net/DTD/sodipodi-0.dtd"
   xmlns="http://www.w3.org/2000/svg"
   xmlns:svg="http://www.w3.org/2000/svg"><sodipodi:namedview
     id="namedview1"
     pagecolor="#ffffff"
     bordercolor="#000000"
     borderopacity="0.25"
     inkscape:showpageshadow="2"
     inkscape:pageopacity="0.0"
     inkscape:pagecheckerboard="0"
     inkscape:deskcolor="#d1d1d1"
     inkscape:document-units="mm"
     inkscape:zoom="0.73049944"
     inkscape:cx="372.34799"
     inkscape:cy="373.71692"
     inkscape:window-width="1920"
     inkscape:window-height="1029"
     inkscape:window-x="0"
     inkscape:window-y="27"
     inkscape:window-maximized="1"
     inkscape:current-layer="layer1" /><defs
     id="defs1" /><g
     inkscape:label="Layer 1"
     inkscape:groupmode="layer"
     id="layer1"><path
       style="fill:#ffffff;fill-opacity:1;stroke-width:1.49833"
       d="m 59.41467,221.68066 c -2.91002,-6.28409 -4.13672,-11.14204 -3.7528,-14.86178 0.29186,-2.82787 0.17222,-3.29043 -1.42708,-5.51741 -1.85861,-2.58808 -2.10702,-4.2573 -1.1477,-7.7121 0.48334,-1.74068 1.01959,-2.32035 2.92719,-3.16416 3.68763,-1.63122 4.77554,-3.23198 6.858,-10.09105 1.61793,-5.329 2.61448,-10.46812 4.87706,-25.15048 0.33956,-2.20359 0.31942,-2.23439 -2.53977,-3.88709 -2.96828,-1.71573 -4.94054,-4.15488 -4.94418,-6.11463 -10e-4,-0.91738 -0.77909,-1.33968 -4.35077,-2.36356 -4.769,-1.3671 -12.68914,-2.96983 -21.82443,-4.41641 -5.06423,-0.80192 -7.11935,-0.85012 -14.43775,-0.33865 -7.13344,0.49855 -9.10442,0.83782 -12.0167001,2.0685 -2.7648002,1.16833 -3.7161502,1.34771 -4.6101802,0.86924 -0.61958,-0.33158 -1.07505,-1.02441 -1.01218,-1.53962 0.0629,-0.5152 -0.0325,-1.31155 -0.21197,-1.76968 -0.47087,-1.20207 -1.5103,-6.53676 -1.5103,-7.7513 0,-0.70942 1.26597,-1.72789 4.0407,-3.25076 l 4.0407202,-2.21767 4.9029401,0.30588 4.90295,0.30589 -1.86361,-2.44677 c -1.02497,-1.34572 -2.71579,-4.30065 -3.75734,-6.56648 -1.75142,-3.81008 -1.91361,-4.63564 -2.1582,-10.98454 -0.34809,-9.036253 1.37064,-22.731108 3.02512,-24.104208 1.41023,-1.17039 8.31246,-0.16063 15.43856,2.25857 3.65068,1.23934 6.80754,2.25334 7.01529,2.25334 1.14554,0 0.84144,-2.63157 -0.60148,-5.2052 -1.70538,-3.04174 -3.33365,-9.11621 -3.33365,-12.43656 0,-1.58824 0.44641,-2.48168 2.07163,-4.14605 l 2.07163,-2.12154 -1.65516,0.5892 c -2.94554,1.04858 -6.75369,4.25807 -7.8362,6.60434 -0.57082,1.23717 -1.24514,2.25585 -1.49851,2.26373 -0.63713,0.0198 0.15552,-7.09141 1.02837,-9.226123 0.49017,-1.198781 1.29401,-1.930489 2.57153,-2.340775 3.14822,-1.011086 8.85731,-1.73734 13.69178,-1.74173 l 4.61446,-0.0045 3.06863,-2.902183 c 1.68775,-1.596213 3.27918,-3.2956 3.53652,-3.776428 0.82521,-1.541957 -0.9557,-5.682478 -3.06615,-7.128588 -1.90121,-1.302719 -1.90319,-1.308668 -1.08485,-3.26722 1.40849,-3.370965 1.57702,-7.432569 0.3712,-8.945669 l -1.04342,-1.309312 -2.06095,2.807564 c -3.07212,4.185065 -6.08348,6.196988 -9.27541,6.196988 -1.84869,0 -2.98639,-0.335535 -3.91652,-1.15509 l -1.31094,-1.155089 1.37299,0.877435 c 1.86143,1.189611 4.91694,1.101135 7.05802,-0.204387 2.03773,-1.242502 6.10768,-6.173465 7.16532,-8.681169 0.39694,-0.941144 0.89515,-3.625246 1.10715,-5.964673 0.2198,-2.425566 0.70297,-4.51702 1.12433,-4.866714 0.51683,-0.428926 0.63689,-1.357289 0.39951,-3.08919 -0.33312,-2.430331 -0.28281,-2.530778 2.72817,-5.4471359 3.23037,-3.12887 8.34879,-5.891246 14.99099,-8.090538 5.36809,-1.77741791 10.61496,-1.35602591 17.5419,1.408844 3.650001,1.456887 5.347241,2.43926 5.753041,3.329896 0.31659,0.694836 1.15955,1.529401 1.87326,1.854586 2.52913,1.152357 3.18417,2.9871479 2.91273,8.1586519 -0.14144,2.694515 -0.54312,5.017011 -0.93504,5.406007 -0.54451,0.540431 -0.61,0.479419 -0.31555,-0.293987 0.20436,-0.536775 0.19937,-1.89387 -0.0105,-3.015787 l -0.38267,-2.039821 -1.07277,2.396123 c -1.12734,2.517998 -1.03188,2.913916 1.2114,5.023679 0.91009,0.855949 2.170583,2.966522 2.170583,3.634461 0,0.206619 -0.478253,-0.214261 -1.062803,-0.93527 -1.43372,-1.76846 -1.80938,-1.189567 -0.77089,1.187903 0.46693,1.068951 0.96641,1.631183 1.10995,1.249424 0.47158,-1.254189 1.235003,-0.72525 1.202173,0.83295 -0.0367,1.745925 0.21582,3.230302 1.17187,6.887043 0.67457,2.580118 0.68193,2.586216 5.613446,4.654207 2.71588,1.138877 5.22051,2.411136 5.56585,2.827237 0.40248,0.484963 0.54278,2.429986 0.39085,5.418128 l -0.23702,4.661579 7.37073,3.393664 c 4.05392,1.86651 8.09817,3.393665 8.98723,3.393665 0.88907,0 2.42554,0.161804 3.41436,0.359568 2.20867,0.441737 3.13081,2.356266 3.67006,7.619586 0.20749,2.02516 0.54587,3.68211 0.75197,3.68211 0.20609,0 1.09294,-0.74966 1.97075,-1.6659 2.35435,-2.4574 3.37213,-2.19338 4.157,1.07836 0.36208,1.50934 0.50604,3.2241 0.31989,3.81059 -0.26666,0.8402 0.54073,1.75968 3.80722,4.3358 2.28011,1.7982 5.47205,3.80723 7.0932,4.46449 1.99644,0.80942 2.94827,1.51209 2.94983,2.17763 10e-4,0.59772 0.98019,1.49853 2.49883,2.29973 2.95428,1.5586 3.28727,2.130275 1.50189,2.578385 -1.48057,0.3716 -3.28875,-0.0805 -7.27458,-1.818755 -1.49394,-0.65153 -2.79606,-1.10479 -2.8936,-1.00725 -0.0975,0.0975 1.9369,2.334835 4.52098,4.971755 4.67764,4.77331 5.87552,7.095383 3.66026,7.095383 -0.99721,0 -6.71069,-4.146483 -6.76015,-4.906103 -0.0135,-0.20307 -1.27734,-1.74359 -2.80914,-3.42338 -2.63665,-2.891355 -2.74231,-2.950555 -1.98245,-1.11059 0.44145,1.06895 1.69106,3.81768 2.77691,6.10828 2.46963,5.209683 2.71188,6.454163 1.20578,6.194353 -1.69532,-0.29246 -2.09715,-0.78718 -5.02178,-6.182383 -1.49361,-2.75531 -2.88879,-5.00966 -3.10041,-5.00966 -0.37362,0 0.28986,3.16342 1.75815,8.382673 0.90373,3.21246 0.47498,4.70892 -1.07231,3.74261 -0.6769,-0.42273 -1.54011,-2.30306 -2.32871,-5.072643 -0.68922,-2.4205 -1.77974,-5.18496 -2.42341,-6.14324 -0.64368,-0.95829 -1.8518,-2.913745 -2.68473,-4.345435 -1.49374,-2.5676 -1.5352,-2.59226 -3.03832,-1.80816 -0.83817,0.43723 -2.36229,0.79652 -3.38697,0.79839 -1.84081,0.003 -1.8605,-0.0232 -1.65006,-2.22999 0.1759,-1.84453 0.0652,-2.16685 -0.6358,-1.85112 -2.04691,0.92192 -9.4481,2.54045 -10.23542,2.23833 -0.48328,-0.18546 -1.02233,-1.30726 -1.21893,-2.5367 -0.31152,-1.94818 -0.89769,-2.63629 -5.04647,-5.92412 -2.58169,-2.04595 -4.87772,-3.49999 -5.10228,-3.2312 -1.96069,2.3469 -3.35152,4.70119 -3.13559,5.30773 0.39643,1.11352 2.40833,13.281495 3.33493,20.169408 0.45192,3.35955 1.31466,9.25517 1.91717,13.10134 0.60252,3.84619 1.23682,8.46905 1.40958,10.27302 1.06823,11.15515 1.40135,16.09209 1.40176,20.77469 l 4.6e-4,5.27815 -3.36581,1.30512 c -1.8512,0.71782 -3.47811,1.19283 -3.61536,1.05557 -0.13724,-0.13724 0.12706,-1.31704 0.58739,-2.62174 l 0.83695,-2.37218 -1.52514,0.34577 c -0.83883,0.19018 -2.330456,0.50062 -3.314716,0.68987 -1.909303,0.36711 -1.907303,0.36332 -2.933293,5.5435 -1.00406,5.06946 -0.79787,4.93321 -7.46594,4.93321 H 81.93729 l -5.05832,12.49421 c -2.78207,6.87182 -5.65068,13.86857 -6.3747,15.54836 -2.00356,4.64842 -5.3717,25.87892 -5.17542,32.62242 0.13485,4.63082 0.0262,5.36205 -0.89603,6.03643 -2.10892,1.54207 -2.93574,0.95936 -5.01755,-3.53623 z M 42.84743,128.08315 c 0.17272,-0.17271 -0.29466,-0.97045 -1.03861,-1.77276 l -1.35263,-1.45874 -2.86829,1.78304 c -1.57757,0.98067 -2.8683,1.90421 -2.8683,2.05229 0,0.36563 7.73286,-0.20885 8.12783,-0.60383 z M 69.66324,74.868052 c -0.49058,-0.91666 -0.73865,-1.01715 -1.0935,-0.443 -0.56906,0.92077 -0.17428,1.62861 0.9083,1.62861 0.66493,0 0.6999,-0.22388 0.1852,-1.18561 z m -20.20541,-3.29371 c 0.57227,-0.92594 0.11522,-0.97655 -1.68872,-0.18698 l -1.6659,0.72912 1.49429,0.025 c 0.82187,0.0135 1.65903,-0.24146 1.86033,-0.56719 z m 58.87188,-23.53615 c -0.24348,-1.623541 -0.74924,-2.72153 -1.41864,-3.07978 -1.67534,-0.896613 -1.68249,-0.721594 -0.11073,2.709049 0.82294,1.796194 1.58884,3.182101 1.70198,3.079796 0.11312,-0.102336 0.0355,-1.321375 -0.17262,-2.709065 z M 52.60842,41.630839 c -0.13395,-0.913125 -0.46556,-1.523094 -0.73678,-1.355476 -0.57739,0.356856 -0.65881,2.109583 -0.12286,2.645505 0.77967,0.779669 1.09418,0.307711 0.85968,-1.290029 z M 90.005571,6.1407611 c -0.32527,-0.526305 -3.643231,-1.830246 -3.643231,-1.431772 0,0.295167 2.907981,1.880693 3.503371,1.910159 0.24709,0.01229 0.31002,-0.203046 0.1398,-0.478387 z"
       id="path1" /></g></svg>
