<?xml version="1.0" encoding="UTF-8" standalone="no"?>
<!-- Created with Inkscape (http://www.inkscape.org/) -->

<svg
   width="142.22501mm"
   height="225.34801mm"
   viewBox="0 0 142.22501 225.34801"
   version="1.1"
   id="svg1"
   inkscape:version="1.4 (e7c3feb100, 2024-10-09)"
   sodipodi:docname="nike-pose02.svg"
   xmlns:inkscape="http://www.inkscape.org/namespaces/inkscape"
   xmlns:sodipodi="http://sodipodi.sourceforge.net/DTD/sodipodi-0.dtd"
   xmlns="http://www.w3.org/2000/svg"
   xmlns:svg="http://www.w3.org/2000/svg">
  <sodipodi:namedview
     id="namedview1"
     pagecolor="#505050"
     bordercolor="#ffffff"
     borderopacity="1"
     inkscape:showpageshadow="0"
     inkscape:pageopacity="0"
     inkscape:pagecheckerboard="1"
     inkscape:deskcolor="#505050"
     inkscape:document-units="mm"
     inkscape:zoom="0.73049944"
     inkscape:cx="396.98867"
     inkscape:cy="451.74573"
     inkscape:window-width="1920"
     inkscape:window-height="1029"
     inkscape:window-x="0"
     inkscape:window-y="27"
     inkscape:window-maximized="1"
     inkscape:current-layer="layer1" />
  <defs
     id="defs1" />
  <g
     inkscape:label="Layer 1"
     inkscape:groupmode="layer"
     id="layer1">
    <path
       style="fill:#ffffff;fill-opacity:1;stroke-width:1.16562"
       d="m 5.3056914,224.80343 c -0.58568,-0.94764 0.81894,-7.37059 3.2504,-14.86328 2.5765406,-7.93972 3.5791206,-10.14345 6.7344306,-14.80264 2.7256,-4.02466 5.8295,-10.25581 7.13875,-14.3312 2.74932,-8.55802 7.38554,-19.72144 11.59837,-27.92745 1.67562,-3.26384 2.83787,-6.12388 2.58278,-6.35565 -0.25507,-0.23177 -2.52028,-1.10459 -5.03378,-1.9396 -4.48286,-1.48925 -4.61998,-1.59138 -7.18982,-5.35501 -1.44089,-2.11025 -3.8456,-6.34319 -5.34379,-9.40653 -1.49819,-3.06333 -2.9222,-5.5697 -3.16445,-5.5697 -0.24225,0 -1.88045,0.63683 -3.64044,1.41518 -1.75998,0.77835 -3.6144706,1.25613 -4.1210706,1.06173 -2.15819,-0.82817 -7.18824004,-14.08415 -8.01897001,-21.13285 -0.30699,-2.60481 -0.20773,-3.02118 0.85589997,-3.59043 1.09529004,-0.58617 1.20420004,-1.14153 1.21466004,-6.193512 0.0159,-7.6546 0.78219,-12.26239 2.66817,-16.042916 0.88261,-1.7692 1.63934,-3.4738 1.68165,-3.78799 0.0423,-0.31418 0.10653,-0.89747 0.14281,-1.29619 0.0444,-0.48823 0.5479,-0.60398 1.54203,-0.35446 l 1.4761404,0.37048 -1.4761404,-1.47613 c -2.62926,-2.62926 -1.32027,-4.8602 1.6931704,-2.88571 l 1.5478502,1.01419 -0.93044,-1.79929 c -1.3275606,-2.56722 -1.2310402,-4.71229 0.21205,-4.71229 0.62837,0 1.14249,0.25923 1.14249,0.57608 0,0.34596 0.44605,0.29755 1.11653,-0.12118 0.6141,-0.3835 1.20289,-0.57847 1.30843,-0.43327 4.05296,5.57575 5.4412,6.50383 7.26272,4.85536 0.65145,-0.58954 1.52352,-0.86332 2.07539,-0.65155 0.52349,0.20089 1.80354,0.0572 2.84453,-0.31917 1.5543,-0.56204 2.50997,-0.51281 5.3446,0.27529 4.37163,1.21541 4.03463,1.25415 6.18632,-0.71112 1.19369,-1.09025 2.93458,-1.90026 5.01023,-2.33116 l 3.180915,-0.66036 -0.27204,-5.52354 c -0.14963,-3.03795 -0.55154,-6.25784 -0.89314,-7.15532 -0.521075,-1.36898 -0.41887,-1.95901 0.63458,-3.66352 l 1.25568,-2.03174 -6.191195,0.37882 c -3.40515,0.20835 -7.33585,0.3788 -8.73489,0.3788 -2.48863,0 -2.53526,0.0341 -2.15379,1.57095 0.58679,2.36427 2.52556,4.14158 4.51779,4.14158 1.28059,0 1.56187,0.16656 1.08559,0.64284 -1.15535,1.15535 -4.807,0.004 -6.84753,-2.16026 -1.03299,-1.09529 -1.87817,-2.40353 -1.87817,-2.90722 0,-1.76219 -2.75747,1.57809 -3.13179,3.79371 -1.27623,7.55393 0.13758,11.14214 4.13461,10.4935 2.47427,-0.40151 2.13082,0.71405 -0.39031,1.26779 -2.85149,0.62629 -6.00224,-0.60558 -7.65098,-2.99137 -1.71632,-2.48358 -5.52906,-10.55365 -5.52906,-11.70284 0,-0.43035 0.78123,-2.01437 1.73608,-3.52001 1.95056,-3.075713 1.00621,-3.337264 -1.07734,-0.29838 -1.16646,1.7013 -1.29608,2.39553 -0.99764,5.34345 0.18865,1.86345 0.74821,4.00652 1.24346,4.7624 1.13363,1.73012 0.60427,2.35501 -0.86705,1.0235 -1.18707,-1.07429 -2.89376,-5.455 -2.89376,-7.42765 0,-2.63645 4.2168,-9.134365 7.87076,-12.128491 2.01478,-1.650972 3.17388,-2.159536 5.21464,-2.287964 1.4432,-0.09079 3.56741,-0.323413 4.72043,-0.516878 1.92133,-0.322368 6.17047,0.277048 8.61583,1.215422 0.85683,0.328795 0.99842,0.02797 0.99842,-2.121515 0,-1.377554 -0.39795,-3.072811 -0.88436,-3.767231 -0.48639,-0.694421 -1.25395,-2.229734 -1.70568,-3.411804 l -0.82133,-2.149219 0.17254,3.141885 c 0.0949,1.728037 0.37583,3.591747 0.62429,4.141574 0.30882,0.683367 0.20647,0.998387 -0.32341,0.995561 -0.90818,-0.0048 -2.77458,-5.294049 -2.77458,-7.86284 0,-0.973463 0.26426,-2.464978 0.58724,-3.314478 0.32299,-0.849498 0.4741,-1.65768 0.33582,-1.795958 -0.13828,-0.138277 -1.65415,0.190764 -3.36861,0.7312 -3.72395,1.173871 -6.12322,0.795067 -6.12322,-0.966754 v -1.194906 l 0.99969,1.222576 c 0.97937,1.197734 1.06354,1.20364 4.14157,0.290626 4.0672,-1.20642 4.36922,-1.494567 4.70696,-4.490997 0.15589,-1.383154 0.87204,-3.467189 1.59144,-4.631189 1.39156,-2.2516077 8.786955,-7.4786997 11.359605,-8.0290207 0.81341,-0.174002 2.50719,-0.875433 3.76396,-1.558737 2.04794,-1.11348401 3.14433,-1.24237301 10.56814,-1.24237301 7.43501,0 8.5749,0.134468 11.13231,1.31322101 3.73592,1.721955 4.82695,2.804456 9.23042,9.1582427 6.76766,9.76506 8.60333,15.086846 6.0127,17.431341 -1.49288,1.351029 -2.61081,1.173389 -1.24033,-0.197089 1.45788,-1.457886 1.43171,-3.611451 -0.0832,-6.855023 l -1.2007,-2.570633 -0.49936,1.713755 c -0.27467,0.942567 -0.56417,3.256137 -0.64334,5.141268 -0.12127,2.88717 0.078,3.723323 1.26345,5.30392 1.10929,1.478938 1.4168,2.596065 1.45177,5.273853 0.0342,2.614117 0.33762,3.761995 1.31635,4.978608 3.67117,4.563527 4.74321,6.258547 5.30349,8.385567 1.0119,3.8414 5.259368,12.37885 6.955463,13.98055 0.87006,0.82164 2.39324,2.82819 3.3848,4.45899 1.72627,2.83914 1.97453,3.01119 5.8437,4.04991 l 4.04083,1.08481 1.01021,4.51887 c 0.5556,2.48537 1.14216,5.109136 1.30346,5.830606 l 0.29327,1.31175 1.64161,-1.16894 c 2.66746,-1.8994 3.33335,-1.56158 3.76724,1.91118 0.21166,1.69405 0.21119,3.62722 -9.7e-4,4.29592 -0.32311,1.01803 -0.0306,1.36125 1.79846,2.1098 1.2014,0.49168 3.84323,1.9646 5.87073,3.27316 3.38647,2.18562 4.04875,2.39573 8.14034,2.58249 4.84907,0.22133 5.6795,0.96673 3.01901,2.709942 -1.04925,0.68751 -2.27763,0.87035 -4.57001,0.68025 -1.72428,-0.143 -3.13506,-0.16107 -3.13506,-0.0403 0,0.1209 1.67063,1.00162 3.71251,1.95713 2.0419,0.95551 3.8438,1.94967 4.00422,2.20924 0.16042,0.25957 -0.32826,0.95959 -1.08595,1.5556 -1.20213,0.94559 -1.26284,1.15605 -0.47657,1.65202 1.23779,0.78078 0.51533,1.70588 -1.67417,2.14377 -1.80478,0.36096 -3.83478,-0.56975 -9.84922,-4.51564 -1.64621,-1.08003 -1.65238,-1.0796 -1.03714,0.0699 0.34041,0.63605 1.66515,2.42253 2.94386,3.96994 2.51462,3.04305 2.64698,3.86793 0.66725,4.15833 -0.9086,0.13327 -2.0782,-0.61321 -4.04957,-2.58458 l -2.77197,-2.77197 -0.19814,2.49133 c -0.10898,1.37023 0.0296,2.63208 0.30799,2.80414 0.67732,0.41861 -0.002,6.03416 -1.1598,9.58497 -1.46507,4.49382 -5.82699,9.66664 -13.85714,16.43323 -1.79276,1.51067 -3.07471,2.13245 -4.39652,2.13245 -1.76082,0 -1.93623,-0.19298 -3.11561,-3.42752 -0.68735,-1.88513 -1.40808,-3.425 -1.60163,-3.42196 -0.417575,0.007 -5.351193,3.88166 -5.772533,4.53401 -0.92301,1.42903 -13.34864,6.13013 -18.97801,7.18011 l -2.11984,0.39539 1.71813,2.93969 c 0.94499,1.61683 3.31275,6.15264 5.26173,10.07958 3.91199,7.88214 6.55022,11.0639 9.59532,11.57205 3.6583,0.61049 5.02484,1.45481 5.97145,3.68942 0.8616,2.03391 0.84165,2.47842 -0.33548,7.47696 -1.19861,5.08975 -1.21104,5.42054 -0.29377,7.82238 0.81525,2.13468 0.86736,3.15804 0.35012,6.87673 -0.3342,2.40287 -0.45295,4.61913 -0.26389,4.92505 0.18906,0.3059 0.17808,1.43923 -0.0244,2.5185 -0.29444,1.56943 -0.63488,1.96231 -1.70043,1.96231 -1.62904,0 -2.01702,-0.50482 -3.73171,-4.85563 -1.43631,-3.64446 -6.34575,-13.52569 -12.02563,-24.20397 -4.09513,-7.69889 -10.97004,-17.48851 -16.60044,-23.63838 -3.8662,-4.22291 -4.16793,-4.42719 -6.53914,-4.42719 -2.08742,0 -2.54528,0.20603 -2.85625,1.28532 -1.19073,4.1325 -4.12466,10.07643 -7.289665,14.76829 -8.12353,12.04251 -11.68359,18.38237 -12.9586,23.07713 -0.68263,2.51352 -1.73507,5.59827 -2.33875,6.85503 -1.54398,3.21421 -5.47006,17.09819 -5.8779,20.78623 -0.5012,4.53224 -2.42675,6.20347 -7.64514,6.6354 -1.32763,0.10992 -2.99149,0.60436 -3.69742,1.09882 -1.4186702,0.99368 -5.3340606,1.21914 -5.8783206,0.3385 z M 41.780122,34.280195 c -0.18084,-0.471287 -0.42984,-0.856882 -0.55331,-0.856882 -0.12349,0 -0.22452,0.385595 -0.22452,0.856882 0,0.471278 0.24899,0.856873 0.55333,0.856873 0.30433,0 0.40536,-0.385595 0.2245,-0.856873 z m -4.39921,-19.554046 c 0.45763,-1.095264 0.70231,-2.121127 0.54374,-2.279696 -0.37171,-0.371711 -2.62993,3.317847 -2.63275,4.301459 -0.004,1.257836 1.20908,0.0842 2.08901,-2.021763 z"
       id="path2" />
  </g>
</svg>
