<?xml version="1.0" encoding="UTF-8" standalone="no"?>
<!-- Created with Inkscape (http://www.inkscape.org/) -->

<svg
   width="169.64799mm"
   height="242.043mm"
   viewBox="0 0 169.648 242.043"
   version="1.1"
   id="svg1"
   sodipodi:docname="nike-pose03.svg"
   xml:space="preserve"
   inkscape:version="1.4 (e7c3feb100, 2024-10-09)"
   xmlns:inkscape="http://www.inkscape.org/namespaces/inkscape"
   xmlns:sodipodi="http://sodipodi.sourceforge.net/DTD/sodipodi-0.dtd"
   xmlns="http://www.w3.org/2000/svg"
   xmlns:svg="http://www.w3.org/2000/svg"><sodipodi:namedview
     id="namedview1"
     pagecolor="#505050"
     bordercolor="#ffffff"
     borderopacity="1"
     inkscape:showpageshadow="0"
     inkscape:pageopacity="0"
     inkscape:pagecheckerboard="1"
     inkscape:deskcolor="#505050"
     inkscape:document-units="mm"
     inkscape:zoom="0.73049944"
     inkscape:cx="396.98867"
     inkscape:cy="451.74573"
     inkscape:window-width="1920"
     inkscape:window-height="1029"
     inkscape:window-x="0"
     inkscape:window-y="27"
     inkscape:window-maximized="1"
     inkscape:current-layer="layer1" /><defs
     id="defs1" /><g
     inkscape:label="Layer 1"
     inkscape:groupmode="layer"
     id="layer1"><path
       style="fill:#ffffff;stroke-width:2.28017;fill-opacity:1"
       d="m 138.04232,240.98892 c -1.05424,-0.64282 -2.95462,-1.34436 -4.22308,-1.55902 -2.78671,-0.47154 -6.00056,-1.85489 -6.65453,-2.86434 -0.26295,-0.40587 -0.7743,-3.04558 -1.13633,-5.86597 -0.78321,-6.10173 -3.7593,-19.30814 -4.58007,-20.32416 -0.3186,-0.3944 -1.10173,-3.24496 -1.74027,-6.33458 -1.12458,-5.44127 -4.04709,-12.25119 -8.25352,-19.23195 -5.8236,-9.66459 -8.68936,-15.34638 -10.09716,-20.01923 l -1.59037,-5.27883 h -2.86884 c -2.82538,0 -2.95095,0.0845 -8.29071,5.58047 -6.33725,6.52261 -11.64872,13.04971 -15.09629,18.55131 -10.41754,16.62425 -16.19519,26.62297 -17.73073,30.6845 -0.8412,2.22503 -1.38023,2.83746 -2.63097,2.98923 -0.86516,0.10512 -1.60107,0.10512 -1.63534,0 -0.0342,-0.10489 -0.16052,-3.38014 -0.28082,-7.27814 -0.18378,-5.9591 -0.0353,-7.5145 0.93199,-9.77129 1.09638,-2.55775 1.10561,-2.92859 0.19633,-7.88084 -1.5315,-8.34056 -0.38316,-10.61592 5.85109,-11.59373 4.54045,-0.71214 5.83766,-2.21845 14.69053,-17.05845 1.88046,-3.15221 3.85695,-6.34213 4.3922,-7.08871 0.90269,-1.25914 0.89784,-1.35741 -0.0673,-1.35741 -3.092,0 -20.82541,-7.24546 -20.82541,-8.50877 0,-0.58758 -5.89556,-5.36701 -6.62036,-5.36701 -0.26347,0 -1.07692,1.47309 -1.80767,3.27352 -0.73075,1.80043 -1.72964,3.42741 -2.21981,3.6155 -1.4993,0.57534 -4.0385,-1.17884 -8.89879,-6.14768 -5.062341,-5.17537 -8.706161,-10.1015 -9.919671,-13.41052 -1.01308,-2.76243 -1.67674,-11.4626 -0.8744,-11.4626 0.50298,0 0.81078,-6.01818 0.30837,-6.02922 -0.093,-0.002 -1.01572,0.96034 -2.05028,2.13863 -2.21345,2.521 -4.86362,4.02849 -6.18838,3.52013 -0.51873,-0.19906 -0.94317,-0.54697 -0.94317,-0.77315 0,-0.22617 1.64407,-2.26331 3.6535,-4.52699 2.00942,-2.26367 3.53223,-4.23703 3.38402,-4.38524 -0.14821,-0.14821 -1.72443,0.6414 -3.50268,1.7547 -5.30678,3.32238 -7.85037,4.24243 -9.74123,3.52353 -1.8073696,-0.68716 -2.2379396,-2.46192 -0.59724,-2.46192 0.85417,0 0.80048,-0.16718 -0.30167,-0.93915 -1.8162896,-1.27219 -1.6872096,-2.62155 0.31825,-3.32689 0.91247,-0.32093 3.01648,-1.2248 4.67553,-2.00859 l 3.01648,-1.42509 -3.75129,0.31213 c -3.9882,0.33185 -6.8063696,-0.73668 -6.8063696,-2.58068 0,-0.709776 0.95833,-0.891026 4.7110296,-0.891026 4.32462,0 5.0021,-0.17528 8.25991,-2.137042 1.9519,-1.17537 4.78651,-2.54183 6.2991,-3.03658 l 2.75021,-0.89955 0.10124,-3.448823 c 0.15368,-5.237987 0.21524,-5.560367 1.0616,-5.560367 0.43234,0 1.49877,0.560609 2.36984,1.245795 1.90219,1.496254 2.581701,1.188547 3.099461,-1.403534 0.21456,-1.074584 0.92903,-3.628549 1.58754,-5.675474 l 1.19732,-3.721682 4.16769,-0.74481 c 4.1339,-0.73877 4.18776,-0.773401 6.6412,-4.271001 1.36042,-1.939404 2.99229,-3.803857 3.62642,-4.143226 1.29042,-0.690613 7.21747,-10.376752 7.21747,-11.79498 0,-1.675837 2.55406,-5.95985 5.441,-9.126438 2.84549,-3.121097 3.94271,-5.890284 3.66847,-9.258501 -0.0773,-0.950185 0.59337,-2.439205 1.76011,-3.907358 1.87601,-2.360642 1.88312,-2.397011 1.46807,-7.514183 -0.22939,-2.828134 -0.49617,-5.231242 -0.59287,-5.340245 -0.37326,-0.420767 -3.30495,5.206816 -3.67413,7.052754 -0.30937,1.546864 -0.0974,2.255926 1.03477,3.461043 1.075,1.144282 1.16455,1.416121 0.36551,1.109502 -2.4103,-0.924925 -2.88166,-4.509822 -1.10559,-8.408641 0.60461,-1.327247 3.61398,-5.732851 6.68746,-9.790229 4.91098,-6.4830646 6.00074,-7.5760496 8.99264,-9.0191776 6.38131,-3.07799695 20.71127,-2.50206785 25.55111,1.026912 0.89905,0.655544 1.99969,1.191897 2.4459,1.191897 0.44618,0 2.02752,0.771344 3.5141,1.714098 6.51291,4.1303766 9.59927,8.2223466 9.59927,12.7270266 0,2.948 1.51006,4.15233 6.57265,5.241936 2.84435,0.612175 3.04619,0.733758 1.27017,0.76514 -1.16134,0.02052 -3.29281,-0.498723 -4.73662,-1.153879 -2.92627,-1.327868 -4.02952,-1.110846 -3.10782,0.611347 0.963,1.799429 0.67915,6.115713 -0.58543,8.901643 -1.38205,3.044684 -1.96588,3.344975 -1.18073,0.607277 0.7401,-2.580544 0.71645,-5.886104 -0.0422,-5.886104 -0.33181,0 -0.60329,0.489814 -0.60329,1.088475 0,0.598663 -0.77072,2.303773 -1.7127,3.789134 -0.94199,1.485358 -1.86981,3.871926 -2.06182,5.303477 -0.32828,2.447453 -0.27107,2.581504 0.95858,2.245681 0.71923,-0.196436 2.96488,-0.669099 4.99034,-1.050378 3.15372,-0.593673 3.96847,-0.550619 5.67315,0.299781 1.0948,0.546157 2.99655,0.993013 4.22609,0.993013 1.76099,0 2.83682,0.529264 5.06808,2.493285 3.32011,2.922489 6.99006,9.674033 6.99006,12.859527 0,2.32649 -2.18814,7.35694 -3.4029,7.82308 -0.48704,0.186905 -0.31012,-0.588779 0.48014,-2.104913 1.00459,-1.927381 1.20135,-3.187133 0.99755,-6.387561 -0.2189,-3.43641 -0.48283,-4.183635 -1.91279,-5.413633 -2.44783,-2.105532 -3.02029,-1.736626 -1.31167,0.84527 2.45937,3.716337 2.51336,5.452102 0.30644,9.849812 -3.15386,6.284628 -5.77829,9.497287 -8.11674,9.935982 -2.17289,0.407633 -5.74215,-0.143194 -5.74215,-0.88616 0,-0.247982 0.82964,-0.329108 1.84365,-0.18027 1.34505,0.197417 2.24243,-0.104021 3.31813,-1.114592 1.32167,-1.241647 1.47444,-1.877502 1.47444,-6.136334 0,-5.333006 -1.0864,-8.311002 -3.03196,-8.311002 -0.65509,0 -1.19109,0.356431 -1.19109,0.792071 0,0.43564 -0.79382,1.552592 -1.76403,2.482116 -1.32621,1.270592 -2.48664,1.7424 -4.67554,1.900983 -2.54451,0.184352 -2.64276,0.15227 -0.77948,-0.25443 1.17261,-0.255953 2.4641,-0.670595 2.86995,-0.921427 1.03218,-0.637925 2.71157,-4.028055 2.23265,-4.506979 -0.45357,-0.453569 -14.09968,-2.444821 -17.01782,-2.483251 l -1.94036,-0.02556 1.25382,2.125074 c 1.12349,1.904166 1.16993,2.327488 0.4468,4.072237 -0.44386,1.07094 -0.8635,3.033093 -0.93254,4.360343 -0.0691,1.327247 -0.30956,3.29202 -0.53447,4.366162 -0.73798,3.52411 0.0228,4.890302 3.16127,5.680702 1.65442,0.416587 3.78421,1.586156 5.17267,2.840558 l 2.36032,2.132393 4.19041,-1.079475 c 3.93521,-1.013733 4.28469,-1.017709 5.73827,-0.0653 0.85131,0.5578 2.07364,0.876686 2.71626,0.708636 0.71209,-0.186222 1.62765,0.187384 2.34426,0.956558 1.06028,1.138096 1.3289,1.180178 2.73381,0.4283 0.85688,-0.458595 2.52829,-1.907831 3.71423,-3.220526 1.93472,-2.141514 2.23213,-2.282973 2.89465,-1.376909 0.65266,0.892558 0.82561,0.904729 1.48948,0.104819 0.41307,-0.497745 1.01378,-0.742621 1.33488,-0.544169 0.78524,0.485299 0.0782,3.086486 -1.40502,5.16957 -1.33515,1.875051 -0.98497,2.09013 1.28777,0.790915 2.06273,-1.179159 3.01648,-1.113349 3.01648,0.208134 0,1.276119 -1.4622,2.759163 -3.63217,3.683911 -1.2571,0.535725 -1.08662,0.580474 1.06817,0.280383 2.36895,-0.329918 2.564,-0.2528 2.564,1.013708 0,0.753936 0.558,2.52346 1.24,3.932276 1.7664,3.648899 2.56359,9.772857 2.2534,17.310303 -0.24585,5.97336 -0.17078,6.57217 0.89442,7.14229 0.99495,0.53249 1.10255,1.02376 0.74559,3.40414 -0.40174,2.679 -3.64145,12.46141 -4.53765,13.70158 -0.23978,0.3318 -1.32699,2.23219 -2.416,4.22306 -1.089,1.99087 -2.26055,3.80222 -2.60342,4.02521 -0.34287,0.22301 -2.19489,-0.38784 -4.11562,-1.3574 -1.9207,-0.96959 -3.75997,-1.76287 -4.08727,-1.76287 -0.32729,0 -1.32553,1.28955 -2.2183,2.86565 -3.91061,6.9037 -7.29916,12.08963 -9.37457,14.3471 -1.92103,2.08952 -2.90073,2.59263 -6.95626,3.57232 -2.5962,0.62715 -4.90097,1.23131 -5.12171,1.34258 -0.22072,0.11126 0.96567,3.25466 2.63649,6.98534 2.6617,5.94317 7.90241,21.19893 11.03442,32.1214 1.06122,3.70092 3.7968,9.61087 7.67938,16.59061 3.71878,6.68521 8.54021,26.71805 6.93327,28.8073 -0.83892,1.09072 -2.86235,0.92323 -5.06389,-0.41914 z M 117.91964,39.00277 c -0.0182,-2.075806 -0.0892,-2.169859 -0.86886,-1.140627 -0.66912,0.883358 -0.6983,1.364113 -0.13727,2.262356 0.96632,1.54732 1.02825,1.478276 1.0062,-1.121729 z m 6.99521,-19.217437 c -0.46634,-1.858043 -2.08501,-4.461872 -2.77371,-4.461872 -0.58821,0 0.50257,4.221645 1.36393,5.278827 1.05287,1.292194 1.82663,0.84381 1.40978,-0.816955 z"
       id="path2" /></g></svg>
