<?xml version="1.0" encoding="UTF-8" standalone="no"?>
<!-- Created with Inkscape (http://www.inkscape.org/) -->

<svg
   width="169.64799mm"
   height="242.043mm"
   viewBox="0 0 169.648 242.043"
   version="1.1"
   id="svg1"
   sodipodi:docname="nike-pose02.svg"
   xml:space="preserve"
   inkscape:version="1.4 (e7c3feb100, 2024-10-09)"
   xmlns:inkscape="http://www.inkscape.org/namespaces/inkscape"
   xmlns:sodipodi="http://sodipodi.sourceforge.net/DTD/sodipodi-0.dtd"
   xmlns="http://www.w3.org/2000/svg"
   xmlns:svg="http://www.w3.org/2000/svg"><sodipodi:namedview
     id="namedview1"
     pagecolor="#505050"
     bordercolor="#ffffff"
     borderopacity="1"
     inkscape:showpageshadow="0"
     inkscape:pageopacity="0"
     inkscape:pagecheckerboard="1"
     inkscape:deskcolor="#505050"
     inkscape:document-units="mm"
     inkscape:zoom="0.73049944"
     inkscape:cx="396.98867"
     inkscape:cy="451.74573"
     inkscape:window-width="1920"
     inkscape:window-height="1029"
     inkscape:window-x="0"
     inkscape:window-y="27"
     inkscape:window-maximized="1"
     inkscape:current-layer="layer1" /><defs
     id="defs1" /><g
     inkscape:label="Layer 1"
     inkscape:groupmode="layer"
     id="layer1"><path
       style="fill:#ffffff;fill-opacity:1;stroke-width:1.08438"
       d="m 71.652877,241.92498 c -0.188708,-0.30534 -0.184379,-1.40124 0.0097,-2.43535 0.198764,-1.0595 -0.02516,-3.34398 -0.512996,-5.23367 -1.443636,-5.5921 -2.59134,-13.04986 -3.471137,-22.55543 -0.459994,-4.96991 -1.101528,-10.68815 -1.425628,-12.70717 -2.992385,-18.64146 -4.642465,-27.57668 -5.868212,-31.77648 -0.794619,-2.72262 -1.444761,-5.27372 -1.444761,-5.66912 0,-0.43772 -1.711923,-1.09388 -4.376916,-1.67761 -2.407304,-0.52728 -7.299568,-1.59143 -10.871696,-2.36475 -3.572129,-0.77334 -7.58926,-1.82009 -8.926959,-2.32611 -2.185944,-0.82691 -2.400175,-1.07133 -2.116059,-2.41424 0.289795,-1.36976 0.05295,-1.60775 -2.843926,-2.85767 -2.877944,-1.24175 -3.131678,-1.49384 -2.842261,-2.82382 0.174781,-0.80319 0.937147,-4.38299 1.694146,-7.95512 3.058856,-14.43415 10.851819,-37.45287 16.443208,-48.569653 l 1.278213,-2.541436 -1.907969,-2.813367 c -1.065154,-1.570607 -1.925504,-3.566409 -1.947663,-4.518106 -0.03407,-1.46336 -0.108416,-1.544806 -0.525069,-0.575213 -0.827707,1.926174 -0.613245,4.444378 0.56586,6.644332 1.450204,2.705766 0.526357,2.72621 -1.525454,0.03376 -1.342746,-1.761996 -1.577511,-2.594292 -1.553191,-5.506443 0.03628,-4.345192 1.00805,-7.20433 3.190307,-9.386588 0.945506,-0.945505 1.624613,-1.772917 1.509126,-1.838692 -0.115487,-0.06578 -2.155127,-1.056763 -4.532534,-2.202193 C 28.237213,62.355696 22.221811,51.906798 19.026845,32.030186 c -0.960452,-5.975203 -1.119728,-6.419185 -2.302826,-6.419185 -0.703064,0 -1.271007,-0.347643 -1.271007,-0.777993 0,-0.427896 -0.38064,-1.093896 -0.845865,-1.48 -0.734605,-0.609667 -0.617067,-0.962594 0.893583,-2.683131 L 17.240181,18.688754 15.567275,17.16079 C 14.647147,16.32041 13.717958,15.077097 13.50238,14.397871 13.276206,13.685262 11.913596,12.556441 10.280827,11.729053 8.3541991,10.752758 7.5508575,10.035576 7.7634208,9.4816445 8.0134863,8.8299848 7.4114809,8.6680991 4.7380829,8.6680991 2.9024445,8.6680991 1.2493645,8.423463 1.0645715,8.1244634 0.87978051,7.8254638 1.9448925,6.9580468 3.4314866,6.1968688 L 6.1343858,4.8129108 4.5812864,4.2130478 C 3.7270818,3.8831238 3.0281865,3.3464618 3.0281865,3.0204658 c 0,-0.325996 0.6988953,-0.845818 1.5530999,-1.15516 0.8542046,-0.309341 2.0808872,-0.830716 2.7259611,-1.15861114 0.8598027,-0.437042 2.3558135,-0.351826 5.6047345,0.31925714 3.756094,0.775842 4.720816,1.221797 6.326812,2.924649 1.042216,1.105071 2.271819,2.911222 2.732451,4.013669 0.460632,1.1024468 1.85097,3.1039192 3.08964,4.4477192 1.238671,1.343798 2.252128,2.678975 2.252128,2.96706 0,0.288084 1.08011,0.865585 2.400245,1.283335 1.809214,0.572519 2.641097,1.242155 3.378377,2.719479 0.849252,1.701686 0.868702,2.021172 0.147614,2.424712 -0.668959,0.374368 -0.304558,1.146664 1.873244,3.970084 1.48707,1.927916 3.940309,5.284308 5.451643,7.458647 3.242354,4.66474 8.124446,9.883358 9.246023,9.883358 0.435786,0 2.816838,1.418604 5.291226,3.152453 2.474388,1.733849 4.596013,3.055328 4.714722,2.936619 0.118708,-0.118708 0.01591,-0.96338 -0.228443,-1.877046 -0.393501,-1.471356 -0.794775,-1.727365 -3.511096,-2.24004 l -3.06682,-0.578828 -0.282382,-3.379205 C 52.462088,37.95808 52.363381,37.7649 51.097651,37.943083 c -1.850904,0.260561 -5.147445,-0.408477 -5.147445,-1.044682 0,-0.286796 0.381782,-0.374943 0.848407,-0.195883 1.248149,0.47896 3.23646,-0.155816 4.669274,-1.490686 0.932436,-0.868694 1.259479,-1.8156 1.259479,-3.646627 0,-3.342245 0.438831,-4.259914 2.037096,-4.259914 1.230554,0 1.351485,-0.233595 1.351485,-2.610588 0,-2.256488 -0.114907,-2.515224 -0.847145,-1.907519 -0.691343,0.573762 -0.847146,0.541307 -0.847146,-0.176465 0,-1.786662 1.14654,-3.808846 2.512388,-4.431168 0.773046,-0.352224 1.271436,-0.857387 1.107534,-1.122586 -0.163901,-0.265198 -0.0638,-0.482179 0.222434,-0.482179 0.28624,0 1.479831,-0.76243 2.652423,-1.69429 1.675411,-1.331448 1.895414,-1.69429 1.027308,-1.69429 -2.521618,0 -6.822707,1.752754 -8.260275,3.366179 -1.027027,1.152663 -1.810825,1.569974 -2.472124,1.316209 -0.771252,-0.295957 -0.803716,-0.426435 -0.159526,-0.641165 0.444826,-0.148276 1.241746,-0.820023 1.770931,-1.492773 1.411666,-1.794642 7.028771,-4.585329 10.917503,-5.424027 1.86372,-0.4019551 6.093942,-0.7453529 9.400494,-0.7631063 4.963491,-0.026654 6.202366,0.1400779 7.104013,0.9560563 0.600654,0.543585 1.580375,0.989754 2.177155,0.991486 5.912944,0.01717 13.642611,7.795642 15.799589,15.899358 0.44168,1.659386 0.806072,3.70607 0.809758,4.548188 0.0042,0.962621 0.924194,2.657553 2.477749,4.564895 1.35907,1.668575 2.75686,3.567833 3.1062,4.220574 1.25678,2.348323 0.53241,5.829067 -1.36457,6.557007 -0.6916,0.26539 -0.62948,5.3e-5 0.26669,-1.139246 1.88272,-2.393488 1.49872,-3.912158 -1.87753,-7.425534 l -3.045804,-3.169498 -1.201632,1.948447 c -1.754426,2.8448 -1.994999,4.339729 -1.198498,7.447511 0.693858,2.707292 0.671876,2.819948 -0.862824,4.421829 -0.866151,0.904067 -2.038362,1.790881 -2.604912,1.970697 -0.625045,0.198382 -1.030089,0.867153 -1.030089,1.700789 0,0.755616 -0.286886,1.373849 -0.637523,1.373849 -0.792545,0 -0.188726,5.217421 0.828508,7.158882 0.387723,0.739997 4.280657,3.488672 8.862864,6.257781 l 8.17143,4.938147 0.17303,2.387046 c 0.166,2.290405 0.2689,2.410701 2.54142,2.971325 1.30263,0.321354 3.58681,1.072595 5.07596,1.669425 2.19746,0.880716 3.0383,0.969842 4.46327,0.473094 1.49572,-0.521409 1.86977,-0.456097 2.52576,0.441015 0.68371,0.935029 0.61073,1.136532 -0.65112,1.797679 -2.42311,1.269595 -1.94222,3.647503 1.22701,6.067392 1.61331,1.231853 2.99267,1.885832 3.52977,1.673524 0.48489,-0.191669 1.64405,-0.447571 2.57591,-0.568671 0.93186,-0.1211 2.20245,-0.290722 2.82355,-0.376936 0.77758,-0.10794 1.18155,0.208546 1.29719,1.01625 0.12788,0.893179 -0.36989,1.415533 -2.08659,2.189657 -1.23999,0.559158 -2.82107,1.619702 -3.5135,2.356766 -0.69244,0.737062 -1.80146,1.340113 -2.46449,1.340113 -0.66304,0 -1.67878,0.346055 -2.25721,0.769011 -0.57843,0.422957 -1.46296,0.661461 -1.96563,0.53001 -0.50267,-0.131452 -1.3881,0.284924 -1.96761,0.925278 -0.57952,0.640355 -1.50756,1.164281 -2.06233,1.164281 -1.12068,0 -1.9173,0.89153 -1.19532,1.33774 0.25475,0.15745 1.55679,0.0406 2.89342,-0.25977 3.6697,-0.824523 21.35336,-3.337023 23.48691,-3.337023 h 1.87062 l -0.81499,3.120913 c -1.35216,5.17801 -6.22939,16.09455 -9.82648,21.99429 -1.86254,3.05483 -3.25364,5.68703 -3.09134,5.84932 0.49693,0.49694 7.11186,-0.93426 8.48915,-1.83669 1.07951,-0.70732 1.24824,-1.20539 1.01194,-2.98713 -0.23268,-1.7543 -0.0349,-2.37076 1.10142,-3.4331 1.1712,-1.09495 2.09057,-1.3178 5.95536,-1.44356 3.99866,-0.13013 5.09004,-0.41252 8.7252,-2.25764 2.28518,-1.1599 5.53761,-2.48191 7.22761,-2.93781 l 3.07274,-0.82891 1.52794,1.78845 c 1.57076,1.83862 2.49153,4.5416 1.88269,5.52675 -0.18923,0.30616 -1.2428,0.72528 -2.34128,0.93135 -1.09847,0.20608 -2.67795,0.94185 -3.50996,1.63505 -3.57107,2.97533 -14.61212,10.08003 -19.43599,12.50668 -2.87762,1.4476 -10.31491,4.60328 -16.5273,7.01264 -6.2124,2.40936 -12.82014,5.06 -14.68386,5.89032 -3.49251,1.55597 -4.77327,1.59607 -9.39483,0.29412 -1.46907,-0.41385 -2.25149,-1.05774 -2.75115,-2.264 -0.38402,-0.92712 -0.879,-1.68568 -1.09995,-1.68568 -0.22095,0 -1.218667,1.01658 -2.217151,2.25906 -1.948595,2.42476 -4.115122,3.00019 -5.044339,1.33977 -0.470057,-0.83994 -0.825812,-0.81947 -4.122598,0.23722 -1.984481,0.63606 -6.149582,1.60897 -9.255781,2.162 -3.106199,0.55303 -5.83435,1.27226 -6.062558,1.59827 -0.820103,1.17158 -0.40531,4.13362 1.077737,7.69612 1.422413,3.41684 1.519818,4.23289 1.680037,14.07526 0.346999,21.31649 0.684972,29.68973 1.258537,31.18009 0.357967,0.93013 1.538802,2.0077 3.011826,2.74842 4.099549,2.06147 4.399674,2.51928 4.399674,6.71119 0,3.53934 -0.111868,3.86345 -1.947588,5.6427 -2.343349,2.27126 -3.135283,5.34071 -3.135283,12.152 0,3.94123 -0.23946,5.20304 -1.441629,7.59651 -1.437705,2.8624 -1.449144,2.87022 -4.202395,2.87022 -1.518422,0 -2.915164,-0.24983 -3.103872,-0.55516 z M 116.06441,131.51094 c 1.35184,-0.77281 2.88764,-1.40817 3.41289,-1.41191 1.71542,-0.0123 1.66089,-1.06883 -0.10225,-1.98055 -1.68519,-0.87145 -1.77788,-0.8489 -3.96163,0.96428 -1.22983,1.02113 -2.24064,2.30136 -2.24624,2.84495 -0.0129,1.25421 -0.0301,1.25668 2.89718,-0.41677 z m -9.68452,-45.47026 c 0,-0.310621 -0.38122,-0.564764 -0.84715,-0.564764 -0.46593,0 -0.84714,0.254143 -0.84714,0.564764 0,0.310619 0.38121,0.564763 0.84714,0.564763 0.46593,0 0.84715,-0.254144 0.84715,-0.564763 z M 116.828,82.087336 c -0.19196,-0.31062 -0.73025,-0.564763 -1.19618,-0.564763 -0.46593,0 -0.69007,0.254143 -0.4981,0.564763 0.19197,0.31062 0.73026,0.564764 1.19619,0.564764 0.46592,0 0.69007,-0.254144 0.49809,-0.564764 z m -10.44811,-6.996975 c 0,-1.543818 -2.04715,-3.175297 -6.49478,-5.176028 l -4.518107,-2.032434 1.976672,2.060675 c 1.505192,1.569158 7.957085,5.865806 8.895025,5.923657 0.0777,0.0048 0.14119,-0.344352 0.14119,-0.77587 z M 93.955094,47.461709 c 0,-0.310621 -0.508286,-0.104773 -1.129526,0.457444 -0.621241,0.562214 -1.129527,1.276351 -1.129527,1.586971 0,0.310619 0.508286,0.104773 1.129527,-0.457445 0.62124,-0.562214 1.129526,-1.276351 1.129526,-1.58697 z M 8.5228643,4.9383078 c -0.1876662,-0.187666 -0.6747746,-0.20773 -1.0824632,-0.04459 -0.4505302,0.180287 -0.316706,0.314111 0.3412113,0.341211 0.5953547,0.02452 0.9289181,-0.108959 0.7412519,-0.296625 z M 54.573596,17.312937 c 0.549496,-0.143192 1.311927,-0.133775 1.69429,0.02093 0.382363,0.154702 -0.06722,0.271859 -0.999084,0.260349 -0.93186,-0.0115 -1.244702,-0.138084 -0.695206,-0.281276 z"
       id="path1" /></g></svg>
